<svg aria-hidden="true" style="width:0;height:0;position:absolute;overflow:hidden" xmlns="http://www.w3.org/2000/svg"><defs><symbol id="icon-arrow" viewBox="0 0 32 32"><path fill="#5f6980" style="fill:var(--color1,#5f6980)" d="M.493 15.731a.38.38 0 0 0 0 .539l2.424 2.424a.38.38 0 1 0 .539-.539L1.301 16l2.155-2.155a.38.38 0 1 0-.539-.539L.493 15.73zm30.745-.112H.762v.762h30.476v-.762z"/></symbol><symbol id="icon-arrow-up-right" viewBox="0 0 32 32"><path fill="none" stroke="#5f6980" style="stroke:var(--color1,#5f6980)" stroke-linejoin="round" stroke-linecap="round" stroke-width="1.6" d="M22.667 9.333 9.334 22.666M10.667 9.333h12v12"/></symbol><symbol id="icon-burger" viewBox="0 0 28 32"><path fill="#5f6980" style="fill:var(--color1,#5f6980)" d="M4.751 5.417a.665.665 0 1 1 0-1.332l22.499-.001a.665.665 0 1 1 0 1.332l-22.499.001zm0 11.251a.665.665 0 1 1 0-1.332l22.499-.003a.665.665 0 1 1 0 1.332l-22.499.003zm0 11.251a.665.665 0 1 1 0-1.332l22.499-.003a.665.665 0 1 1 0 1.332l-22.499.003z"/></symbol><symbol id="icon-calendar" viewBox="0 0 32 32"><path fill="#001648" style="fill:var(--color2,#001648)" d="M21.91 4a1.2 1.2 0 1 0-2.4 0v1.467h-8.267V4a1.2 1.2 0 1 0-2.4 0v1.467H7.376a3.867 3.867 0 0 0-3.867 3.867v16a3.867 3.867 0 0 0 3.867 3.867h16a3.867 3.867 0 0 0 3.867-3.867v-16a3.867 3.867 0 0 0-3.867-3.867h-1.467V4zm2.933 9.467H5.91V9.334c0-.81.657-1.467 1.467-1.467h1.467v1.467a1.2 1.2 0 1 0 2.4 0V7.867h8.267v1.467a1.2 1.2 0 1 0 2.4 0V7.867h1.467c.81 0 1.467.657 1.467 1.467v4.133zm-18.933 2.4h18.933v9.467c0 .81-.657 1.467-1.467 1.467h-16c-.81 0-1.467-.657-1.467-1.467v-9.467z"/></symbol><symbol id="icon-cart" viewBox="0 0 32 32"><path fill="#5f6980" style="fill:var(--color1,#5f6980)" d="M25.739 31.305c-1.917 0-3.478-1.561-3.478-3.478s1.561-3.478 3.478-3.478 3.478 1.561 3.478 3.478a3.483 3.483 0 0 1-3.478 3.478zm0-5.566c-1.151 0-2.087.936-2.087 2.087s.936 2.087 2.087 2.087c1.151 0 2.087-.936 2.087-2.087s-.936-2.087-2.087-2.087zM11.826 31.305c-1.917 0-3.478-1.561-3.478-3.478s1.561-3.478 3.478-3.478 3.478 1.561 3.478 3.478a3.483 3.483 0 0 1-3.478 3.478zm0-5.566c-1.151 0-2.087.936-2.087 2.087s.936 2.087 2.087 2.087 2.087-.936 2.087-2.087a2.09 2.09 0 0 0-2.087-2.087zM28.522 22.956H12.465a4.884 4.884 0 0 1-4.775-3.914L4.299 2.086H.695a.697.697 0 0 1 0-1.392h4.174c.331 0 .616.234.682.559l3.503 17.514a3.487 3.487 0 0 0 3.41 2.796h16.057a.697.697 0 0 1 0 1.392z"/><path fill="#5f6980" style="fill:var(--color1,#5f6980)" d="M27.456 17.391H8.348a.697.697 0 0 1 0-1.392h19.108c1.05 0 1.941-.786 2.072-1.828l.989-7.911H6.261a.697.697 0 0 1 0-1.392h25.044a.698.698 0 0 1 .69.782l-1.087 8.693a3.484 3.484 0 0 1-3.452 3.047z"/></symbol><symbol id="icon-chevron-down" viewBox="0 0 32 32"><path fill="none" stroke="#fdfdfd" style="stroke:var(--color3,#fdfdfd)" stroke-linejoin="round" stroke-linecap="round" stroke-width="2" d="m8.363 12 8 8 8-8"/></symbol><symbol id="icon-chevron-right" viewBox="0 0 32 32"><path fill="none" stroke="#5f6980" style="stroke:var(--color1,#5f6980)" stroke-linejoin="round" stroke-linecap="round" stroke-width="2" d="m12.225 8 8 8-8 8"/></symbol><symbol id="icon-clock" viewBox="0 0 32 32"><path fill="#001648" style="fill:var(--color2,#001648)" d="M16 5.2C10.035 5.2 5.2 10.035 5.2 16S10.035 26.8 16 26.8c5.965 0 10.8-4.835 10.8-10.8S21.965 5.2 16 5.2zM2.8 16C2.8 8.71 8.71 2.8 16 2.8S29.2 8.71 29.2 16c0 7.29-5.91 13.2-13.2 13.2S2.8 23.29 2.8 16zm14.4-1.2V9.333a1.2 1.2 0 1 0-2.4 0V16a1.2 1.2 0 0 0 1.2 1.2h4.667a1.2 1.2 0 1 0 0-2.4H17.2z"/></symbol><symbol id="icon-close" viewBox="0 0 32 32"><path fill="#001648" style="fill:var(--color2,#001648)" d="M24.707 8.707a.999.999 0 1 0-1.414-1.414L16 14.586 8.707 7.293a.999.999 0 1 0-1.414 1.414L14.586 16l-7.293 7.293a.999.999 0 1 0 1.414 1.414L16 17.414l7.293 7.293a.999.999 0 1 0 1.414-1.414L17.414 16l7.293-7.293z"/></symbol><symbol id="icon-cupcake" viewBox="0 0 32 32"><path fill="#001648" style="fill:var(--color2,#001648)" opacity=".2" d="M14.803 2.739c-1.26.842-2.312 1.559-2.831 2.152-.295.336-.424.614-.441.867s.066.54.372.936l.07.091c1.153-.217 2.485-.321 3.927-.287 1.94.046 3.777.335 5.322.799a4.452 4.452 0 0 0-.288-.484c-.367-.517-.749-.843-1.906-.777l-.032.002-.032-.002c-2.015-.144-3.02-.79-3.51-1.612-.362-.607-.477-1.202-.651-1.684zm.877 4.757c-2.078-.008-3.886.293-5.125.779-.661.259-1.158.572-1.449.887s-.371.602-.318.87c.045.225.191.468.484.736 1.571-.575 3.472-1.014 5.578-1.251 3.049-.344 5.95-.201 8.228.327.48.111.932.24 1.353.386-.092-.22-.282-.457-.612-.718-.419-.332-1.046-.672-1.816-.965-1.541-.586-3.651-.992-5.905-1.046a29.911 29.911 0 0 0-.419-.006zm2.693 2.808a28.28 28.28 0 0 0-3.224.178c-2.945.332-5.471 1.081-7.139 1.994-.834.456-1.45.955-1.801 1.433-.293.399-.399.762-.356 1.096.249-.09.5-.174.754-.252 2.442-.751 5.745-1.201 9.393-1.201s6.952.45 9.393 1.201c.079.024.157.049.233.074a3.86 3.86 0 0 0 .658-.674c.351-.478.434-.903.314-1.29s-.451-.765-1.064-1.134c-.613-.369-1.486-.7-2.536-.944-1.313-.305-2.901-.477-4.625-.482zM16 14.447c-3.532 0-6.728.446-8.992 1.142-1.132.348-2.028.761-2.611 1.185s-.839.831-.839 1.226.256.802.839 1.226l.013.009L8 17.44l3.951 2.001 4.052-2.001 3.898 2.001 4.101-1.998 3.586 1.793.013-.009c.583-.424.839-.831.839-1.226s-.256-.802-.839-1.226c-.583-.424-1.479-.837-2.611-1.185-2.264-.696-5.46-1.142-8.992-1.142zm7.997 4.111-3.528 1.719-.973 7.786-.992-.125.95-7.602-3.459-1.776-3.458 1.708.959 7.67-.992.125-.964-7.71-3.542-1.793-3.376 1.688L8.35 30.5h15.299l3.728-10.252-3.381-1.69z"/></symbol><symbol id="icon-fb" viewBox="0 0 32 32"><path fill="#5f6980" style="fill:var(--color1,#5f6980)" opacity=".8" d="M24.671.237a42.834 42.834 0 0 0-4.628-.238c-5.125 0-8.309 3.264-8.309 8.518v3.567H7.429a.762.762 0 0 0-.762.762v5.867a.762.762 0 0 0 .762.762h4.305v11.764a.762.762 0 0 0 .762.762h6.062a.762.762 0 0 0 .762-.762V19.475h4.291a.763.763 0 0 0 .756-.663l.757-5.867a.758.758 0 0 0-.183-.602.772.772 0 0 0-.573-.259H19.32V9.099c0-1.478.297-2.095 2.146-2.095h3.107a.762.762 0 0 0 .762-.762V.992a.763.763 0 0 0-.663-.756zm-.862 5.242-2.347.002c-3.287 0-3.668 2.066-3.668 3.619v3.749a.76.76 0 0 0 .761.762h4.946l-.562 4.343h-4.383a.762.762 0 0 0-.762.762v11.761h-4.538V18.716a.762.762 0 0 0-.762-.762H8.191v-4.343h4.303a.762.762 0 0 0 .762-.762V8.518c0-4.379 2.537-6.994 6.786-6.994 1.537 0 2.926.084 3.767.157V5.48z"/></symbol><symbol id="icon-inst" viewBox="0 0 32 32"><path fill="#5f6980" style="fill:var(--color1,#5f6980)" opacity=".8" d="M16 8.96a7.045 7.045 0 0 0-6.504 4.345 7.045 7.045 0 0 0 1.526 7.673 7.038 7.038 0 0 0 10.833-1.067 7.037 7.037 0 0 0-.878-8.887 7.047 7.047 0 0 0-4.976-2.064zm0 12.8a5.76 5.76 0 1 1 0-11.519 5.76 5.76 0 0 1 0 11.519zM23.68 0H8.32A8.328 8.328 0 0 0 0 8.32v15.36A8.328 8.328 0 0 0 8.32 32h15.36A8.328 8.328 0 0 0 32 23.68V8.32A8.328 8.328 0 0 0 23.68 0zm7.04 23.68a7.048 7.048 0 0 1-7.04 7.04H8.32a7.048 7.048 0 0 1-7.04-7.04V8.32a7.048 7.048 0 0 1 7.04-7.04h15.36a7.048 7.048 0 0 1 7.04 7.04v15.36zm-5.12-16a1.276 1.276 0 0 1-.791 1.182 1.283 1.283 0 0 1-1.395-.277 1.277 1.277 0 0 1-.277-1.395 1.278 1.278 0 0 1 2.087-.415c.24.24.375.566.375.905z"/></symbol><symbol id="icon-person" viewBox="0 0 32 32"><path fill="#5f6980" style="fill:var(--color1,#5f6980)" d="M16 19.2c8.832 0 16 3.349 16 7.467V32H0v-5.333C0 22.55 7.168 19.2 16 19.2zm13.867 7.467c0-2.944-6.208-5.333-13.867-5.333S2.133 23.723 2.133 26.667v3.2h27.733v-3.2zM16 0a7.47 7.47 0 0 1 7.467 7.467 7.469 7.469 0 0 1-12.747 5.28A7.467 7.467 0 0 1 16 0zm0 2.133a5.334 5.334 0 1 0 0 10.668 5.334 5.334 0 0 0 0-10.668z"/></symbol><symbol id="icon-phone" viewBox="0 0 32 32"><path fill="#5f6980" style="fill:var(--color1,#5f6980)" opacity=".8" d="m30.092 22.052-7.495-3.354a1.899 1.899 0 0 0-1.866.203l-3.937 3.356a.632.632 0 0 1-.588.033c-2.578-1.244-5.246-3.892-6.491-6.44a.618.618 0 0 1 .029-.586l3.365-4.002c.016-.019.03-.04.044-.06a1.898 1.898 0 0 0 .158-1.804l-3.36-7.483A1.905 1.905 0 0 0 7.97.774a8.294 8.294 0 0 0-7.21 8.24c0 12.254 9.968 22.222 22.223 22.222a8.295 8.295 0 0 0 8.24-7.21 1.908 1.908 0 0 0-1.132-1.976zm-.124 1.818a7.02 7.02 0 0 1-6.984 6.098c-11.553 0-20.953-9.4-20.953-20.953a7.022 7.022 0 0 1 6.098-6.984.482.482 0 0 1 .076 0 .63.63 0 0 1 .582.396l3.351 7.483a.64.64 0 0 1-.036.571l-3.364 4c-.016.021-.032.04-.046.062a1.9 1.9 0 0 0-.123 1.865c1.379 2.824 4.224 5.648 7.079 7.027a1.903 1.903 0 0 0 1.872-.138l.059-.044 3.941-3.352a.625.625 0 0 1 .566-.043l7.494 3.359a.635.635 0 0 1 .387.654z"/></symbol><symbol id="icon-search" viewBox="0 0 32 32"><path fill="#5f6980" style="fill:var(--color1,#5f6980)" opacity=".6" d="M19.806 22.452c-5.384 0-9.763-4.38-9.763-9.764s4.38-9.766 9.763-9.766 9.763 4.381 9.763 9.766c0 5.384-4.38 9.764-9.763 9.764zm0-18.825c-4.996 0-9.06 4.066-9.06 9.062s4.064 9.061 9.06 9.061 9.06-4.065 9.06-9.061c0-4.997-4.064-9.062-9.06-9.062z"/><path fill="#5f6980" style="fill:var(--color1,#5f6980)" opacity=".6" d="M27.335 13.04a.353.353 0 0 1-.352-.352c0-3.958-3.22-7.179-7.178-7.179a.353.353 0 0 1 0-.704c4.346 0 7.881 3.536 7.881 7.882 0 .046-.009.092-.026.135s-.043.082-.076.114-.071.059-.114.077a.35.35 0 0 1-.135.027zM2.783 29.077a.351.351 0 0 1-.329-.228.356.356 0 0 1 .095-.388l10.493-9.238a.35.35 0 0 1 .486.041.351.351 0 0 1-.02.486L3.014 28.988a.35.35 0 0 1-.232.088z"/></symbol><symbol id="icon-setting" viewBox="0 0 32 32"><path fill="#fdfdfd" style="fill:var(--color3,#fdfdfd)" d="M15.867 10.333a2.467 2.467 0 1 1 4.934 0 2.467 2.467 0 0 1-4.934 0zm-2.251 1.2H4a1.2 1.2 0 1 1 0-2.4h9.616a4.87 4.87 0 0 1 9.436 0h4.949a1.2 1.2 0 1 1 0 2.4h-4.949a4.87 4.87 0 0 1-9.436 0zM7.867 21a2.467 2.467 0 1 1 4.934 0 2.467 2.467 0 0 1-4.934 0zm2.466 4.867A4.87 4.87 0 0 1 5.615 22.2H3.999a1.2 1.2 0 1 1 0-2.4h1.616a4.868 4.868 0 0 1 9.436 0H28a1.2 1.2 0 1 1 0 2.4H15.051a4.87 4.87 0 0 1-4.718 3.667z"/></symbol><symbol id="icon-telegram" viewBox="0 0 32 32"><path fill="#5f6980" style="fill:var(--color1,#5f6980)" opacity=".8" d="M31.744 1.957a.747.747 0 0 0-.756-.129L.965 13.577a1.514 1.514 0 0 0 .259 2.898l8.257 1.621v9.161a1.773 1.773 0 0 0 3.054 1.233l4.148-4.296 6.37 5.586a1.772 1.772 0 0 0 1.723.357 1.76 1.76 0 0 0 1.185-1.292l6.018-26.162a.74.74 0 0 0-.237-.726zM1.187 15.017c-.009-.072.007-.144.046-.205s.096-.107.165-.131L27.271 4.556 9.938 16.978l-8.483-1.665c-.072-.011-.138-.046-.187-.099s-.078-.123-.081-.195zm10.499 12.648a.593.593 0 0 1-1.018-.409v-8.34l5.123 4.489-4.105 4.261zm13.122.91a.597.597 0 0 1-.398.433.585.585 0 0 1-.575-.123L11.028 17.654l19.51-13.982-5.73 24.903z"/></symbol><symbol id="icon-trash" viewBox="0 0 32 32"><path fill="none" stroke="#5f6980" style="stroke:var(--color1,#5f6980)" stroke-linejoin="round" stroke-linecap="round" stroke-width="2" d="M5.333 9.333h21.333M13.333 14.667v8M18.667 14.667v8M6.667 9.333l1.333 16A2.67 2.67 0 0 0 10.667 28h10.667a2.67 2.67 0 0 0 2.667-2.667l1.333-16"/><path fill="none" stroke="#5f6980" style="stroke:var(--color1,#5f6980)" stroke-linejoin="round" stroke-linecap="round" stroke-width="2" d="M12 9.333v-4a1.335 1.335 0 0 1 1.334-1.334h5.333a1.335 1.335 0 0 1 1.334 1.334v4"/></symbol></defs></svg>