<svg width="28" height="32" viewBox="0 0 28 32" fill="none" xmlns="http://www.w3.org/2000/svg">
<path d="M4.75065 5.41743C4.57384 5.41743 4.40427 5.34719 4.27925 5.22217C4.15422 5.09714 4.08398 4.92757 4.08398 4.75076C4.08398 4.57395 4.15422 4.40438 4.27925 4.27936C4.40427 4.15433 4.57384 4.0841 4.75065 4.0841L27.2493 4.08276C27.4261 4.08276 27.5957 4.153 27.7207 4.27803C27.8457 4.40305 27.916 4.57262 27.916 4.74943C27.916 4.92624 27.8457 5.09581 27.7207 5.22083C27.5957 5.34586 27.4261 5.4161 27.2493 5.4161L4.75065 5.41743ZM4.75065 16.6681C4.57384 16.6681 4.40427 16.5979 4.27925 16.4728C4.15422 16.3478 4.08398 16.1782 4.08398 16.0014C4.08398 15.8246 4.15422 15.6551 4.27925 15.53C4.40427 15.405 4.57384 15.3348 4.75065 15.3348L27.2493 15.3321C27.4261 15.3321 27.5957 15.4023 27.7207 15.5274C27.8457 15.6524 27.916 15.822 27.916 15.9988C27.916 16.1756 27.8457 16.3451 27.7207 16.4702C27.5957 16.5952 27.4261 16.6654 27.2493 16.6654L4.75065 16.6681ZM4.75065 27.9188C4.57384 27.9188 4.40427 27.8485 4.27925 27.7235C4.15422 27.5985 4.08398 27.4289 4.08398 27.2521C4.08398 27.0753 4.15422 26.9057 4.27925 26.7807C4.40427 26.6557 4.57384 26.5854 4.75065 26.5854L27.2493 26.5828C27.4261 26.5828 27.5957 26.653 27.7207 26.778C27.8457 26.903 27.916 27.0726 27.916 27.2494C27.916 27.4262 27.8457 27.5958 27.7207 27.7208C27.5957 27.8459 27.4261 27.9161 27.2493 27.9161L4.75065 27.9188Z" fill="#5F6980"/>
</svg>
