<svg width="20" height="20" viewBox="0 0 20 20" fill="none" xmlns="http://www.w3.org/2000/svg">
<path fill-rule="evenodd" clip-rule="evenodd" d="M13.6936 2.5C13.6936 2.08579 13.3578 1.75 12.9436 1.75C12.5294 1.75 12.1936 2.08579 12.1936 2.5V3.41667H7.02694V2.5C7.02694 2.08579 6.69115 1.75 6.27694 1.75C5.86272 1.75 5.52694 2.08579 5.52694 2.5V3.41667H4.61027C3.27558 3.41667 2.1936 4.49865 2.1936 5.83333V9.16667V15.8333C2.1936 17.168 3.27558 18.25 4.61027 18.25H14.6103C15.945 18.25 17.0269 17.168 17.0269 15.8333V9.16667V5.83333C17.0269 4.49865 15.945 3.41667 14.6103 3.41667H13.6936V2.5ZM15.5269 8.41667V5.83333C15.5269 5.32707 15.1165 4.91667 14.6103 4.91667H13.6936V5.83333C13.6936 6.24755 13.3578 6.58333 12.9436 6.58333C12.5294 6.58333 12.1936 6.24755 12.1936 5.83333V4.91667H7.02694V5.83333C7.02694 6.24755 6.69115 6.58333 6.27694 6.58333C5.86272 6.58333 5.52694 6.24755 5.52694 5.83333V4.91667H4.61027C4.10401 4.91667 3.6936 5.32707 3.6936 5.83333V8.41667H15.5269ZM3.6936 9.91667H15.5269V15.8333C15.5269 16.3396 15.1165 16.75 14.6103 16.75H4.61027C4.10401 16.75 3.6936 16.3396 3.6936 15.8333V9.91667Z" fill="#001648"/>
</svg>
