<svg width="20" height="20" viewBox="0 0 20 20" fill="none" xmlns="http://www.w3.org/2000/svg">
<path d="M16.0868 19.5654C14.8885 19.5654 13.9128 18.5897 13.9128 17.3915C13.9128 16.1932 14.8885 15.2175 16.0868 15.2175C17.2851 15.2175 18.2607 16.1932 18.2607 17.3915C18.2607 18.5897 17.2851 19.5654 16.0868 19.5654ZM16.0868 16.0871C15.3676 16.0871 14.7824 16.6723 14.7824 17.3915C14.7824 18.1106 15.3676 18.6958 16.0868 18.6958C16.8059 18.6958 17.3911 18.1106 17.3911 17.3915C17.3911 16.6723 16.8059 16.0871 16.0868 16.0871Z" fill="#5F6980"/>
<path d="M7.39123 19.5654C6.19295 19.5654 5.21729 18.5897 5.21729 17.3915C5.21729 16.1932 6.19295 15.2175 7.39123 15.2175C8.5895 15.2175 9.56517 16.1932 9.56517 17.3915C9.56517 18.5897 8.5895 19.5654 7.39123 19.5654ZM7.39123 16.0871C6.67209 16.0871 6.08686 16.6723 6.08686 17.3915C6.08686 18.1106 6.67209 18.6958 7.39123 18.6958C8.11036 18.6958 8.69559 18.1106 8.69559 17.3915C8.69559 16.6723 8.11036 16.0871 7.39123 16.0871Z" fill="#5F6980"/>
<path d="M17.8263 14.3478H7.79053C6.3453 14.3478 5.08963 13.3191 4.80615 11.9017L2.68699 1.30415H0.434788C0.194785 1.30415 0 1.10936 0 0.869358C0 0.629355 0.194785 0.43457 0.434788 0.43457H3.04352C3.25048 0.43457 3.42874 0.580659 3.46961 0.78414L5.6592 11.7304C5.86181 12.7434 6.75835 13.4782 7.79053 13.4782H17.8263C18.0663 13.4782 18.2611 13.673 18.2611 13.913C18.2611 14.153 18.0663 14.3478 17.8263 14.3478Z" fill="#5F6980"/>
<path d="M17.1602 10.8694H5.21742C4.97742 10.8694 4.78264 10.6746 4.78264 10.4346C4.78264 10.1946 4.97742 9.99982 5.21742 9.99982H17.1602C17.8167 9.99982 18.3732 9.50851 18.455 8.8572L19.0733 3.91279H3.91306C3.67306 3.91279 3.47827 3.718 3.47827 3.478C3.47827 3.238 3.67306 3.04321 3.91306 3.04321H19.5654C19.6907 3.04321 19.8089 3.09713 19.8915 3.19017C19.9741 3.28322 20.0124 3.40843 19.9967 3.53191L19.3176 8.96503C19.1819 10.0511 18.2541 10.8694 17.1602 10.8694Z" fill="#5F6980"/>
</svg>
