<svg width="20" height="20" viewBox="0 0 20 20" fill="none" xmlns="http://www.w3.org/2000/svg">
<path fill-rule="evenodd" clip-rule="evenodd" d="M10 3.25C6.27208 3.25 3.25 6.27208 3.25 10C3.25 13.7279 6.27208 16.75 10 16.75C13.7279 16.75 16.75 13.7279 16.75 10C16.75 6.27208 13.7279 3.25 10 3.25ZM1.75 10C1.75 5.44365 5.44365 1.75 10 1.75C14.5563 1.75 18.25 5.44365 18.25 10C18.25 14.5563 14.5563 18.25 10 18.25C5.44365 18.25 1.75 14.5563 1.75 10ZM10.75 9.25V5.83333C10.75 5.41912 10.4142 5.08333 10 5.08333C9.58579 5.08333 9.25 5.41912 9.25 5.83333V10C9.25 10.4142 9.58579 10.75 10 10.75H12.9167C13.3309 10.75 13.6667 10.4142 13.6667 10C13.6667 9.58579 13.3309 9.25 12.9167 9.25H10.75Z" fill="#001648"/>
</svg>
