<svg width="32" height="32" viewBox="0 0 32 32" fill="none" xmlns="http://www.w3.org/2000/svg">
<g opacity="0.2">
<path d="M14.8035 2.73926C13.5435 3.58126 12.4916 4.29863 11.9723 4.89088C11.6775 5.22695 11.5481 5.50463 11.5313 5.75838C11.5144 6.01195 11.597 6.29801 11.9031 6.69401L11.9736 6.78513C13.1271 6.56788 14.4585 6.4637 15.9008 6.49807C17.8408 6.54432 19.6781 6.83326 21.2225 7.2967C21.1289 7.12026 21.036 6.95557 20.9347 6.8127C20.5681 6.29557 20.186 5.96957 19.0286 6.03545L18.9965 6.03732L18.9646 6.03501C16.9498 5.89082 15.945 5.24482 15.4546 4.42301C15.0923 3.81563 14.978 3.2207 14.8035 2.73926ZM15.6804 7.49588C13.6023 7.48751 11.7946 7.78932 10.5552 8.27463C9.89421 8.53351 9.39771 8.84651 9.10646 9.16188C8.81533 9.47732 8.73564 9.76376 8.78877 10.0319C8.83333 10.2569 8.97939 10.4997 9.2724 10.7681C10.8433 10.1933 12.7447 9.75438 14.8508 9.51688C17.8993 9.17295 20.8008 9.31551 23.0789 9.84426C23.5586 9.95551 24.0108 10.0839 24.4323 10.2301C24.34 10.0104 24.1498 9.77357 23.82 9.5122C23.4005 9.17988 22.7745 8.8402 22.0041 8.5472C20.4635 7.96138 18.3532 7.55532 16.0995 7.5017C15.9586 7.49832 15.8188 7.49638 15.6804 7.49588ZM18.3732 10.3044C17.3382 10.3013 16.2538 10.3584 15.1495 10.4829C12.2048 10.815 9.67858 11.5643 8.01083 12.477C7.17696 12.9333 6.56064 13.432 6.20958 13.9099C5.91614 14.3093 5.81058 14.6715 5.85346 15.0058C6.10257 14.9158 6.35383 14.8318 6.60702 14.754C9.04852 14.0028 12.3522 13.5528 16.0001 13.5528C19.6481 13.5528 22.9518 14.0028 25.3933 14.754C25.472 14.7783 25.5498 14.8029 25.6268 14.8278C25.9 14.6029 26.1212 14.3763 26.2845 14.1542C26.6355 13.6763 26.7185 13.2512 26.5988 12.8642C26.4791 12.4772 26.1478 12.099 25.5348 11.7299C24.9218 11.3608 24.049 11.0301 22.9986 10.7863C21.6856 10.4816 20.0981 10.3094 18.3732 10.3044ZM16.0001 14.4469C12.4684 14.4469 9.27202 14.8924 7.00846 15.5888C5.87658 15.9371 4.98071 16.3498 4.39783 16.7738C3.81502 17.1978 3.55908 17.6047 3.55908 17.9999C3.55908 18.3951 3.81502 18.8019 4.39783 19.2259C4.40221 19.2291 4.40683 19.2322 4.41114 19.2353L8.00158 17.4402L11.9528 19.4408L16.0045 17.4401L19.902 19.4408L24.003 17.4423L27.5892 19.2354C27.5935 19.2323 27.5981 19.2291 27.6025 19.226C28.1853 18.8019 28.4412 18.3951 28.4412 17.9999C28.4412 17.6047 28.1853 17.1978 27.6025 16.7738C27.0196 16.3498 26.1237 15.9371 24.9918 15.5888C22.7282 14.8924 19.5318 14.4469 16.0001 14.4469ZM23.9973 18.5576L20.4695 20.2768L19.4963 28.0624L18.5041 27.9374L19.4544 20.3352L15.9958 18.5597L12.5375 20.2676L13.4963 27.9374L12.5041 28.0624L11.5403 20.3529L7.99871 18.5596L4.62233 20.2478L8.35046 30.4999H23.6498L27.378 20.2478L23.9973 18.5576Z" fill="#001648"/>
</g>
</svg>
