<svg width="14" height="24" viewBox="0 0 14 24" fill="none" xmlns="http://www.w3.org/2000/svg">
<path d="M13.5029 0.177701C12.35 0.0554031 11.1913 -0.00411324 10.032 -0.000584264C6.18857 -0.000584264 3.8 2.44742 3.8 6.38799V9.06342H0.571429C0.419876 9.06342 0.274531 9.12362 0.167367 9.23078C0.0602035 9.33795 0 9.48329 0 9.63484V14.0348C0 14.1864 0.0602035 14.3317 0.167367 14.4389C0.274531 14.5461 0.419876 14.6063 0.571429 14.6063H3.8V23.4291C3.8 23.5807 3.8602 23.726 3.96737 23.8332C4.07453 23.9404 4.21988 24.0006 4.37143 24.0006H8.91771C9.06927 24.0006 9.21461 23.9404 9.32178 23.8332C9.42894 23.726 9.48914 23.5807 9.48914 23.4291V14.6063H12.7074C12.8462 14.6063 12.9802 14.5559 13.0845 14.4645C13.1888 14.373 13.2563 14.2467 13.2743 14.1091L13.8423 9.70913C13.8529 9.62848 13.8461 9.54651 13.8224 9.46868C13.7988 9.39086 13.7588 9.31898 13.7051 9.25786C13.6515 9.19673 13.5854 9.14777 13.5113 9.11423C13.4372 9.0807 13.3568 9.06338 13.2754 9.06342H9.48914V6.82456C9.48914 5.71599 9.712 5.25313 11.0983 5.25313H13.4286C13.5801 5.25313 13.7255 5.19293 13.8326 5.08576C13.9398 4.9786 14 4.83325 14 4.6817V0.744559C14.0001 0.605825 13.9497 0.471805 13.8582 0.367502C13.7667 0.263199 13.6404 0.195737 13.5029 0.177701ZM12.8571 4.10913L11.0971 4.11027C8.632 4.11027 8.34629 5.65999 8.34629 6.82456V9.63599C8.34628 9.78734 8.40633 9.93251 8.51325 10.0396C8.62017 10.1468 8.76522 10.2071 8.91657 10.2074H12.6263L12.2046 13.4646H8.91771C8.76616 13.4646 8.62082 13.5248 8.51365 13.6319C8.40649 13.7391 8.34629 13.8844 8.34629 14.036V22.8566H4.94286V14.036C4.94286 13.8844 4.88265 13.7391 4.77549 13.6319C4.66833 13.5248 4.52298 13.4646 4.37143 13.4646H1.144V10.2074H4.37143C4.52298 10.2074 4.66833 10.1472 4.77549 10.04C4.88265 9.93288 4.94286 9.78754 4.94286 9.63599V6.38799C4.94286 3.10342 6.84571 1.14227 10.032 1.14227C11.1851 1.14227 12.2263 1.20513 12.8571 1.25999V4.10913Z" fill="#5F6980" fill-opacity="0.8"/>
</svg>
