<svg width="20" height="21" viewBox="0 0 20 21" fill="none" xmlns="http://www.w3.org/2000/svg">
<path opacity="0.8" d="M19.2477 14.4718L14.3289 12.2708C14.1382 12.1882 13.93 12.1545 13.723 12.1727C13.516 12.1909 13.3168 12.2604 13.1435 12.3749C13.1296 12.3837 13.1164 12.3935 13.1039 12.4041L10.5205 14.6062C10.463 14.6413 10.3978 14.6616 10.3305 14.6654C10.2633 14.6692 10.1962 14.6564 10.1351 14.6281C8.44339 13.8114 6.69232 12.0739 5.87565 10.402C5.84676 10.3414 5.83335 10.2745 5.83662 10.2074C5.83989 10.1404 5.85974 10.0751 5.8944 10.0176L8.10276 7.39153C8.11318 7.37903 8.12255 7.36548 8.13193 7.35194C8.24609 7.17882 8.31538 6.98001 8.33356 6.77343C8.35175 6.56685 8.31825 6.359 8.2361 6.16859L6.03086 1.25811C5.9244 1.0094 5.74012 0.801947 5.50571 0.666896C5.27129 0.531846 4.99939 0.476489 4.73084 0.509138C3.41996 0.681974 2.21681 1.32609 1.34613 2.32118C0.475455 3.31627 -0.00321743 4.59428 -0.000476576 5.9165C-0.000476576 13.9583 6.54128 20.5 14.5831 20.5C15.9053 20.5028 17.1833 20.0241 18.1784 19.1534C19.1735 18.2827 19.8176 17.0796 19.9904 15.7687C20.0228 15.5014 19.9681 15.2307 19.8342 14.9971C19.7004 14.7634 19.4947 14.5792 19.2477 14.4718ZM19.1665 15.6646C19.0194 16.7747 18.473 17.7933 17.6294 18.5299C16.7859 19.2665 15.7029 19.6706 14.5831 19.6667C7.0017 19.6667 0.832868 13.4979 0.832868 5.9165C0.828989 4.79664 1.23311 3.7137 1.96968 2.87015C2.70625 2.02661 3.72484 1.48021 4.83501 1.33311C4.85166 1.33207 4.86836 1.33207 4.88501 1.33311C4.96721 1.33381 5.04737 1.35881 5.11539 1.40496C5.18342 1.45112 5.23627 1.51636 5.2673 1.59249L7.46629 6.50297C7.49195 6.56299 7.50315 6.62819 7.49899 6.69333C7.49483 6.75846 7.47542 6.82171 7.44233 6.87798L5.23501 9.50301C5.2246 9.51655 5.21418 9.52905 5.2048 9.54364C5.08721 9.72347 5.01795 9.93058 5.00372 10.145C4.98948 10.3594 5.03076 10.5738 5.12355 10.7676C6.02877 12.6208 7.89546 14.4739 9.76945 15.3791C9.96457 15.4713 10.1802 15.5114 10.3955 15.4956C10.6107 15.4797 10.8181 15.4083 10.9976 15.2885L11.0361 15.2593L13.6226 13.0593C13.678 13.0255 13.7405 13.0053 13.8052 13.0004C13.8698 12.9956 13.9347 13.0061 13.9945 13.0312L18.9123 15.2354C18.9953 15.2699 19.0649 15.3304 19.1107 15.4077C19.1565 15.4851 19.1761 15.5752 19.1665 15.6646Z" fill="#5F6980"/>
</svg>
