<svg width="24" height="24" viewBox="0 0 24 24" fill="none" xmlns="http://www.w3.org/2000/svg">
<g opacity="0.6">
<path d="M14.8546 16.8391C10.8166 16.8391 7.53223 13.5541 7.53223 9.51609C7.53223 5.47749 10.8172 2.19189 14.8546 2.19189C18.892 2.19189 22.177 5.47749 22.177 9.51609C22.177 13.5541 18.892 16.8391 14.8546 16.8391ZM14.8546 2.71989C11.1076 2.71989 8.05963 5.76909 8.05963 9.51669C8.05963 13.2637 11.1076 16.3123 14.8546 16.3123C18.6016 16.3123 21.6496 13.2637 21.6496 9.51669C21.6496 5.76909 18.6016 2.71989 14.8546 2.71989Z" fill="#5F6980"/>
<path d="M20.5016 9.77992C20.4316 9.77992 20.3645 9.7521 20.315 9.70259C20.2654 9.65308 20.2376 9.58593 20.2376 9.51592C20.2376 6.54712 17.8226 4.13152 14.8544 4.13152C14.7844 4.13152 14.7173 4.1037 14.6678 4.05419C14.6182 4.00468 14.5904 3.93753 14.5904 3.86752C14.5904 3.7975 14.6182 3.73035 14.6678 3.68084C14.7173 3.63133 14.7844 3.60352 14.8544 3.60352C18.1136 3.60352 20.765 6.25552 20.765 9.51532C20.7652 9.55001 20.7585 9.58439 20.7453 9.61648C20.7322 9.64858 20.7128 9.67776 20.6883 9.70234C20.6638 9.72693 20.6347 9.74644 20.6027 9.75975C20.5707 9.77306 20.5363 9.77992 20.5016 9.77992ZM2.08703 21.8075C2.03355 21.8074 1.98136 21.791 1.9374 21.7605C1.89343 21.7301 1.85975 21.687 1.84082 21.637C1.82189 21.5869 1.8186 21.5323 1.83139 21.4804C1.84418 21.4285 1.87244 21.3816 1.91243 21.3461L9.78203 14.4173C9.83493 14.3745 9.90233 14.3537 9.97017 14.3593C10.038 14.365 10.101 14.3966 10.1461 14.4477C10.1912 14.4987 10.2148 14.5652 10.212 14.6332C10.2092 14.7012 10.1803 14.7655 10.1312 14.8127L2.26103 21.7415C2.21308 21.7841 2.15116 21.8076 2.08703 21.8075Z" fill="#5F6980"/>
</g>
</svg>
