<svg aria-hidden="true" style="position: absolute; width: 0; height: 0; overflow: hidden;" version="1.1"
    xmlns="http://www.w3.org/2000/svg"
    xmlns:xlink="http://www.w3.org/1999/xlink">
    <defs>
        <symbol id="icon-arrow" viewBox="0 0 32 32">
            <path d="M0.493 15.731c-0.149 0.149-0.149 0.39 0 0.539l2.424 2.424c0.149 0.149 0.39 0.149 0.539 0s0.149-0.39 0-0.539l-2.155-2.155 2.155-2.155c0.149-0.149 0.149-0.39 0-0.539s-0.39-0.149-0.539 0l-2.424 2.424zM31.238 15.619h-30.476v0.762h30.476v-0.762z"></path>
        </symbol>
        <symbol id="icon-arrow-up-right" viewBox="0 0 32 32">
            <path fill="none" stroke="#5f6980" style="stroke: var(--color1, #5f6980)" stroke-linejoin="round" stroke-linecap="round" stroke-miterlimit="4" stroke-width="1.4675" d="M22.115 9.885l-12.229 12.229"></path>
            <path fill="none" stroke="#5f6980" style="stroke: var(--color1, #5f6980)" stroke-linejoin="round" stroke-linecap="round" stroke-miterlimit="4" stroke-width="1.4675" d="M11.108 9.885h11.006v11.006"></path>
        </symbol>
        <symbol id="icon-burger" viewBox="0 0 28 32">
            <path d="M4.751 5.417c-0.177 0-0.346-0.070-0.471-0.195s-0.195-0.295-0.195-0.471c0-0.177 0.070-0.346 0.195-0.471s0.295-0.195 0.471-0.195l22.499-0.001c0.177 0 0.346 0.070 0.471 0.195s0.195 0.295 0.195 0.471c0 0.177-0.070 0.346-0.195 0.471s-0.295 0.195-0.471 0.195l-22.499 0.001zM4.751 16.668c-0.177 0-0.346-0.070-0.471-0.195s-0.195-0.295-0.195-0.471 0.070-0.346 0.195-0.471c0.125-0.125 0.295-0.195 0.471-0.195l22.499-0.003c0.177 0 0.346 0.070 0.471 0.195s0.195 0.295 0.195 0.471-0.070 0.346-0.195 0.471c-0.125 0.125-0.295 0.195-0.471 0.195l-22.499 0.003zM4.751 27.919c-0.177 0-0.346-0.070-0.471-0.195s-0.195-0.295-0.195-0.471c0-0.177 0.070-0.346 0.195-0.471s0.295-0.195 0.471-0.195l22.499-0.003c0.177 0 0.346 0.070 0.471 0.195s0.195 0.295 0.195 0.471c0 0.177-0.070 0.346-0.195 0.471s-0.295 0.195-0.471 0.195l-22.499 0.003z"></path>
        </symbol>
        <symbol id="icon-calendar" viewBox="0 0 32 32">
            <path d="M21.91 4c0-0.663-0.537-1.2-1.2-1.2s-1.2 0.537-1.2 1.2v1.467h-8.267v-1.467c0-0.663-0.537-1.2-1.2-1.2s-1.2 0.537-1.2 1.2v1.467h-1.467c-2.135 0-3.867 1.731-3.867 3.867v16c0 2.136 1.731 3.867 3.867 3.867h16c2.136 0 3.867-1.731 3.867-3.867v-16c0-2.136-1.731-3.867-3.867-3.867h-1.467v-1.467zM24.843 13.467h-18.933v-4.133c0-0.81 0.657-1.467 1.467-1.467h1.467v1.467c0 0.663 0.537 1.2 1.2 1.2s1.2-0.537 1.2-1.2v-1.467h8.267v1.467c0 0.663 0.537 1.2 1.2 1.2s1.2-0.537 1.2-1.2v-1.467h1.467c0.81 0 1.467 0.657 1.467 1.467v4.133zM5.91 15.867h18.933v9.467c0 0.81-0.657 1.467-1.467 1.467h-16c-0.81 0-1.467-0.657-1.467-1.467v-9.467z"></path>
        </symbol>
        <symbol id="icon-cart" viewBox="0 0 32 32">
            <path d="M25.739 31.305c-1.917 0-3.478-1.561-3.478-3.478s1.561-3.478 3.478-3.478 3.478 1.561 3.478 3.478c0 1.917-1.561 3.478-3.478 3.478zM25.739 25.739c-1.151 0-2.087 0.936-2.087 2.087s0.936 2.087 2.087 2.087c1.151 0 2.087-0.936 2.087-2.087s-0.936-2.087-2.087-2.087z"></path>
            <path d="M11.826 31.305c-1.917 0-3.478-1.561-3.478-3.478s1.561-3.478 3.478-3.478 3.478 1.561 3.478 3.478c0 1.917-1.561 3.478-3.478 3.478zM11.826 25.739c-1.151 0-2.087 0.936-2.087 2.087s0.936 2.087 2.087 2.087 2.087-0.936 2.087-2.087c0-1.151-0.936-2.087-2.087-2.087z"></path>
            <path d="M28.522 22.956h-16.057c-2.312 0-4.321-1.646-4.775-3.914l-3.391-16.956h-3.604c-0.384 0-0.696-0.312-0.696-0.696s0.312-0.696 0.696-0.696h4.174c0.331 0 0.616 0.234 0.682 0.559l3.503 17.514c0.324 1.621 1.759 2.796 3.41 2.796h16.057c0.384 0 0.696 0.312 0.696 0.696s-0.312 0.696-0.696 0.696z"></path>
            <path d="M27.456 17.391h-19.108c-0.384 0-0.696-0.312-0.696-0.696s0.312-0.696 0.696-0.696h19.108c1.050 0 1.941-0.786 2.072-1.828l0.989-7.911h-24.256c-0.384 0-0.696-0.312-0.696-0.696s0.312-0.696 0.696-0.696h25.044c0.2 0 0.39 0.086 0.522 0.235s0.193 0.349 0.168 0.547l-1.087 8.693c-0.217 1.738-1.702 3.047-3.452 3.047z"></path>
        </symbol>
        <symbol id="icon-chevron-down" viewBox="0 0 32 32">
            <path stroke-linejoin="round" stroke-linecap="round" stroke-miterlimit="4" stroke-width="2" d="M8.363 12l8 8 8-8"></path>
        </symbol>
        <symbol id="icon-chevron-right" viewBox="0 0 32 32">
            <path fill="none" stroke="#5f6980" style="stroke: var(--color1, #5f6980)" stroke-linejoin="round" stroke-linecap="round" stroke-miterlimit="4" stroke-width="2" d="M12.225 8l8 8-8 8"></path>
        </symbol>
        <symbol id="icon-clock" viewBox="0 0 32 32">
            <path d="M16 5.2c-5.965 0-10.8 4.835-10.8 10.8s4.835 10.8 10.8 10.8c5.965 0 10.8-4.835 10.8-10.8s-4.835-10.8-10.8-10.8zM2.8 16c0-7.29 5.91-13.2 13.2-13.2s13.2 5.91 13.2 13.2c0 7.29-5.91 13.2-13.2 13.2s-13.2-5.91-13.2-13.2zM17.2 14.8v-5.467c0-0.663-0.537-1.2-1.2-1.2s-1.2 0.537-1.2 1.2v6.667c0 0.663 0.537 1.2 1.2 1.2h4.667c0.663 0 1.2-0.537 1.2-1.2s-0.537-1.2-1.2-1.2h-3.467z"></path>
        </symbol>
        <symbol id="icon-close" viewBox="0 0 32 32">
            <path d="M24.707 8.707c0.391-0.391 0.391-1.024 0-1.414s-1.024-0.391-1.414 0l-7.293 7.293-7.293-7.293c-0.391-0.391-1.024-0.391-1.414 0s-0.391 1.024 0 1.414l7.293 7.293-7.293 7.293c-0.391 0.391-0.391 1.024 0 1.414s1.024 0.391 1.414 0l7.293-7.293 7.293 7.293c0.391 0.391 1.024 0.391 1.414 0s0.391-1.024 0-1.414l-7.293-7.293 7.293-7.293z"></path>
        </symbol>
        <symbol id="icon-cupcake" viewBox="0 0 32 32">
            <path d="M14.803 2.739c-1.26 0.842-2.312 1.559-2.831 2.152-0.295 0.336-0.424 0.614-0.441 0.867s0.066 0.54 0.372 0.936l0.070 0.091c1.153-0.217 2.485-0.321 3.927-0.287 1.94 0.046 3.777 0.335 5.322 0.799-0.094-0.176-0.186-0.341-0.288-0.484-0.367-0.517-0.749-0.843-1.906-0.777l-0.032 0.002-0.032-0.002c-2.015-0.144-3.020-0.79-3.51-1.612-0.362-0.607-0.477-1.202-0.651-1.684zM15.68 7.496c-2.078-0.008-3.886 0.293-5.125 0.779-0.661 0.259-1.158 0.572-1.449 0.887s-0.371 0.602-0.318 0.87c0.045 0.225 0.191 0.468 0.484 0.736 1.571-0.575 3.472-1.014 5.578-1.251 3.049-0.344 5.95-0.201 8.228 0.327 0.48 0.111 0.932 0.24 1.353 0.386-0.092-0.22-0.282-0.457-0.612-0.718-0.419-0.332-1.046-0.672-1.816-0.965-1.541-0.586-3.651-0.992-5.905-1.046-0.141-0.003-0.281-0.005-0.419-0.006zM18.373 10.304c-1.035-0.003-2.119 0.054-3.224 0.178-2.945 0.332-5.471 1.081-7.139 1.994-0.834 0.456-1.45 0.955-1.801 1.433-0.293 0.399-0.399 0.762-0.356 1.096 0.249-0.090 0.5-0.174 0.754-0.252 2.442-0.751 5.745-1.201 9.393-1.201s6.952 0.45 9.393 1.201c0.079 0.024 0.157 0.049 0.233 0.074 0.273-0.225 0.494-0.451 0.658-0.674 0.351-0.478 0.434-0.903 0.314-1.29s-0.451-0.765-1.064-1.134c-0.613-0.369-1.486-0.7-2.536-0.944-1.313-0.305-2.901-0.477-4.625-0.482zM16 14.447c-3.532 0-6.728 0.446-8.992 1.142-1.132 0.348-2.028 0.761-2.611 1.185s-0.839 0.831-0.839 1.226 0.256 0.802 0.839 1.226c0.004 0.003 0.009 0.006 0.013 0.009l3.59-1.795 3.951 2.001 4.052-2.001 3.898 2.001 4.101-1.998 3.586 1.793c0.004-0.003 0.009-0.006 0.013-0.009 0.583-0.424 0.839-0.831 0.839-1.226s-0.256-0.802-0.839-1.226c-0.583-0.424-1.479-0.837-2.611-1.185-2.264-0.696-5.46-1.142-8.992-1.142zM23.997 18.558l-3.528 1.719-0.973 7.786-0.992-0.125 0.95-7.602-3.459-1.776-3.458 1.708 0.959 7.67-0.992 0.125-0.964-7.71-3.542-1.793-3.376 1.688 3.728 10.252h15.299l3.728-10.252-3.381-1.69z"></path>
        </symbol>
        <symbol id="icon-fb" viewBox="0 0 32 32">
            <path d="M24.671 0.237c-1.537-0.163-3.082-0.242-4.628-0.238-5.125 0-8.309 3.264-8.309 8.518v3.567h-4.305c-0.202 0-0.396 0.080-0.539 0.223s-0.223 0.337-0.223 0.539v5.867c0 0.202 0.080 0.396 0.223 0.539s0.337 0.223 0.539 0.223h4.305v11.764c0 0.202 0.080 0.396 0.223 0.539s0.337 0.223 0.539 0.223h6.062c0.202 0 0.396-0.080 0.539-0.223s0.223-0.337 0.223-0.539v-11.764h4.291c0.185 0 0.364-0.067 0.503-0.189s0.229-0.29 0.253-0.474l0.757-5.867c0.014-0.108 0.005-0.217-0.027-0.321s-0.085-0.2-0.156-0.281c-0.071-0.082-0.16-0.147-0.258-0.191s-0.206-0.068-0.315-0.068h-5.048v-2.985c0-1.478 0.297-2.095 2.146-2.095h3.107c0.202 0 0.396-0.080 0.539-0.223s0.223-0.337 0.223-0.539v-5.25c0-0.185-0.067-0.364-0.189-0.503s-0.29-0.229-0.474-0.253zM23.809 5.479l-2.347 0.002c-3.287 0-3.668 2.066-3.668 3.619v3.749c0 0.202 0.080 0.395 0.223 0.538s0.336 0.223 0.538 0.224h4.946l-0.562 4.343h-4.383c-0.202 0-0.396 0.080-0.539 0.223s-0.223 0.337-0.223 0.539v11.761h-4.538v-11.761c0-0.202-0.080-0.396-0.223-0.539s-0.337-0.223-0.539-0.223h-4.303v-4.343h4.303c0.202 0 0.396-0.080 0.539-0.223s0.223-0.337 0.223-0.539v-4.331c0-4.379 2.537-6.994 6.786-6.994 1.537 0 2.926 0.084 3.767 0.157v3.799z"></path>
        </symbol>
        <symbol id="icon-inst" viewBox="0 0 32 32">
            <path d="M16 8.96c-1.392 0-2.753 0.413-3.911 1.186s-2.060 1.873-2.593 3.159c-0.533 1.286-0.672 2.702-0.401 4.068s0.942 2.62 1.927 3.605c0.985 0.984 2.239 1.655 3.605 1.927s2.781 0.132 4.068-0.401c1.286-0.533 2.386-1.435 3.16-2.593s1.186-2.519 1.186-3.911c-0.002-1.866-0.744-3.656-2.064-4.976s-3.109-2.062-4.976-2.064zM16 21.76c-1.139 0-2.253-0.338-3.2-0.971s-1.685-1.532-2.121-2.585c-0.436-1.053-0.55-2.211-0.328-3.328s0.771-2.144 1.576-2.949c0.806-0.806 1.832-1.354 2.949-1.576s2.275-0.108 3.328 0.328c1.052 0.436 1.952 1.174 2.585 2.121s0.971 2.061 0.971 3.2c0 1.528-0.607 2.993-1.687 4.073s-2.545 1.687-4.073 1.687zM23.68 0h-15.36c-2.206 0.003-4.321 0.88-5.88 2.44s-2.437 3.675-2.44 5.88v15.36c0.003 2.206 0.88 4.321 2.44 5.88s3.675 2.437 5.88 2.44h15.36c2.206-0.003 4.321-0.88 5.88-2.44s2.437-3.675 2.44-5.88v-15.36c-0.003-2.206-0.88-4.321-2.44-5.88s-3.675-2.437-5.88-2.44zM30.72 23.68c-0.002 1.866-0.744 3.656-2.064 4.976s-3.109 2.062-4.976 2.064h-15.36c-1.866-0.002-3.656-0.744-4.976-2.064s-2.062-3.109-2.064-4.976v-15.36c0.002-1.866 0.744-3.656 2.064-4.976s3.109-2.062 4.976-2.064h15.36c1.866 0.002 3.656 0.744 4.976 2.064s2.062 3.109 2.064 4.976v15.36zM25.6 7.68c0 0.253-0.075 0.501-0.216 0.711s-0.341 0.375-0.575 0.471c-0.234 0.097-0.491 0.122-0.74 0.073s-0.476-0.171-0.655-0.35c-0.179-0.179-0.301-0.407-0.35-0.655s-0.024-0.506 0.073-0.74c0.097-0.234 0.261-0.434 0.471-0.574s0.458-0.216 0.711-0.216c0.34 0 0.665 0.135 0.905 0.375s0.375 0.566 0.375 0.905z"></path>
        </symbol>
        <symbol id="icon-person" viewBox="0 0 32 32">
            <path d="M16 19.2c8.832 0 16 3.349 16 7.467v5.333h-32v-5.333c0-4.117 7.168-7.467 16-7.467zM29.867 26.667c0-2.944-6.208-5.333-13.867-5.333s-13.867 2.389-13.867 5.333v3.2h27.733v-3.2zM16 0c1.98 0 3.879 0.787 5.28 2.187s2.187 3.299 2.187 5.28-0.787 3.879-2.187 5.28c-1.4 1.4-3.3 2.187-5.28 2.187s-3.879-0.787-5.28-2.187c-1.4-1.4-2.187-3.299-2.187-5.28s0.787-3.879 2.187-5.28c1.4-1.4 3.299-2.187 5.28-2.187zM16 2.133c-1.414 0-2.771 0.562-3.771 1.562s-1.562 2.357-1.562 3.771c0 1.415 0.562 2.771 1.562 3.771s2.357 1.562 3.771 1.562c1.414 0 2.771-0.562 3.771-1.562s1.562-2.357 1.562-3.771-0.562-2.771-1.562-3.771c-1-1-2.357-1.562-3.771-1.562z"></path>
        </symbol>
        <symbol id="icon-phone" viewBox="0 0 32 32">
            <path d="M30.092 22.052l-7.495-3.354c-0.291-0.126-0.608-0.177-0.923-0.149s-0.619 0.134-0.883 0.308c-0.021 0.013-0.041 0.028-0.060 0.044l-3.937 3.356c-0.088 0.053-0.187 0.084-0.29 0.090s-0.205-0.014-0.298-0.057c-2.578-1.244-5.246-3.892-6.491-6.44-0.044-0.092-0.064-0.194-0.059-0.297s0.035-0.202 0.088-0.289l3.365-4.002c0.016-0.019 0.030-0.040 0.044-0.060 0.174-0.264 0.28-0.567 0.307-0.882s-0.023-0.631-0.149-0.922l-3.36-7.483c-0.162-0.379-0.443-0.695-0.8-0.901s-0.772-0.29-1.181-0.24c-1.998 0.263-3.831 1.245-5.158 2.761s-2.056 3.464-2.052 5.479c0 12.254 9.968 22.222 22.223 22.222 2.015 0.004 3.962-0.725 5.479-2.052s2.498-3.16 2.761-5.158c0.049-0.407-0.034-0.82-0.238-1.176s-0.517-0.637-0.894-0.8zM29.968 23.87c-0.224 1.692-1.057 3.244-2.342 4.366s-2.936 1.738-4.642 1.732c-11.553 0-20.953-9.4-20.953-20.953-0.006-1.706 0.61-3.357 1.732-4.642s2.675-2.118 4.366-2.342c0.025-0.002 0.051-0.002 0.076 0 0.125 0.001 0.247 0.039 0.351 0.11s0.184 0.17 0.231 0.286l3.351 7.483c0.039 0.091 0.056 0.191 0.050 0.29s-0.036 0.196-0.086 0.281l-3.364 4c-0.016 0.021-0.032 0.040-0.046 0.062-0.179 0.274-0.285 0.59-0.306 0.916s0.041 0.653 0.183 0.949c1.379 2.824 4.224 5.648 7.079 7.027 0.297 0.14 0.626 0.202 0.954 0.178s0.644-0.133 0.918-0.316l0.059-0.044 3.941-3.352c0.084-0.052 0.18-0.082 0.278-0.090s0.197 0.009 0.288 0.047l7.494 3.359c0.126 0.053 0.233 0.145 0.302 0.263s0.1 0.255 0.085 0.391z"></path>
        </symbol>
        <symbol id="icon-search" viewBox="0 0 32 32">
            <path d="M19.806 22.452c-5.384 0-9.763-4.38-9.763-9.764s4.38-9.766 9.763-9.766 9.763 4.381 9.763 9.766c0 5.384-4.38 9.764-9.763 9.764zM19.806 3.627c-4.996 0-9.060 4.066-9.060 9.062s4.064 9.061 9.060 9.061 9.060-4.065 9.060-9.061c0-4.997-4.064-9.062-9.060-9.062z"></path>
            <path d="M27.335 13.040c-0.093 0-0.183-0.037-0.249-0.103s-0.103-0.156-0.103-0.249c0-3.958-3.22-7.179-7.178-7.179-0.093 0-0.183-0.037-0.249-0.103s-0.103-0.156-0.103-0.249 0.037-0.183 0.103-0.249c0.066-0.066 0.155-0.103 0.249-0.103 4.346 0 7.881 3.536 7.881 7.882 0 0.046-0.009 0.092-0.026 0.135s-0.043 0.082-0.076 0.114-0.071 0.059-0.114 0.077c-0.043 0.018-0.089 0.027-0.135 0.027zM2.783 29.077c-0.071-0-0.141-0.022-0.2-0.063s-0.104-0.098-0.129-0.165c-0.025-0.067-0.030-0.14-0.013-0.209s0.055-0.132 0.108-0.179l10.493-9.238c0.071-0.057 0.16-0.085 0.251-0.077s0.174 0.050 0.235 0.118c0.060 0.068 0.092 0.157 0.088 0.247s-0.042 0.176-0.108 0.239l-10.494 9.238c-0.064 0.057-0.147 0.088-0.232 0.088z"></path>
        </symbol>
        <symbol id="icon-setting" viewBox="0 0 32 32">
            <path d="M15.867 10.333c0-1.362 1.104-2.467 2.467-2.467s2.467 1.104 2.467 2.467-1.104 2.467-2.467 2.467c-1.362 0-2.467-1.104-2.467-2.467zM13.616 11.533h-9.616c-0.663 0-1.2-0.537-1.2-1.2s0.537-1.2 1.2-1.2h9.616c0.534-2.107 2.444-3.667 4.718-3.667s4.183 1.559 4.718 3.667h4.949c0.663 0 1.2 0.537 1.2 1.2s-0.537 1.2-1.2 1.2h-4.949c-0.534 2.107-2.444 3.667-4.718 3.667s-4.183-1.559-4.718-3.667zM7.867 21c0-1.362 1.104-2.467 2.467-2.467s2.467 1.104 2.467 2.467c0 1.362-1.104 2.467-2.467 2.467s-2.467-1.104-2.467-2.467zM10.333 25.867c-2.274 0-4.183-1.559-4.718-3.667h-1.616c-0.663 0-1.2-0.537-1.2-1.2s0.537-1.2 1.2-1.2h1.616c0.534-2.108 2.444-3.667 4.718-3.667s4.183 1.559 4.718 3.667h12.949c0.663 0 1.2 0.537 1.2 1.2s-0.537 1.2-1.2 1.2h-12.949c-0.534 2.107-2.444 3.667-4.718 3.667z"></path>
        </symbol>
        <symbol id="icon-telegram" viewBox="0 0 32 32">
            <path d="M31.744 1.957c-0.102-0.088-0.227-0.147-0.36-0.17s-0.27-0.009-0.396 0.041l-30.023 11.749c-0.306 0.119-0.565 0.334-0.738 0.613s-0.251 0.607-0.222 0.934c0.029 0.327 0.164 0.636 0.384 0.879s0.513 0.409 0.835 0.472l8.257 1.621v9.161c-0 0.354 0.106 0.701 0.304 0.995s0.48 0.522 0.808 0.654c0.211 0.085 0.437 0.129 0.665 0.129 0.239-0.001 0.475-0.049 0.694-0.143s0.418-0.231 0.583-0.402l4.148-4.296 6.37 5.586c0.323 0.285 0.738 0.443 1.169 0.444 0.188-0.001 0.375-0.030 0.554-0.087 0.293-0.093 0.557-0.261 0.765-0.488s0.353-0.504 0.42-0.804l6.018-26.162c0.030-0.131 0.024-0.268-0.018-0.396s-0.118-0.242-0.219-0.33zM1.187 15.017c-0.009-0.072 0.007-0.144 0.046-0.205s0.096-0.107 0.165-0.131l25.873-10.125-17.333 12.422-8.483-1.665c-0.072-0.011-0.138-0.046-0.187-0.099s-0.078-0.123-0.081-0.195zM11.686 27.665c-0.082 0.084-0.187 0.143-0.302 0.167s-0.235 0.014-0.344-0.030c-0.109-0.044-0.203-0.119-0.269-0.216s-0.102-0.212-0.103-0.33v-8.34l5.123 4.489-4.105 4.261zM24.808 28.575c-0.023 0.101-0.072 0.193-0.141 0.269s-0.158 0.132-0.257 0.164c-0.098 0.031-0.203 0.036-0.304 0.015s-0.194-0.069-0.271-0.138l-12.807-11.231 19.51-13.982-5.73 24.903z"></path>
        </symbol>
        <symbol id="icon-trash" viewBox="0 0 32 32">
            <path fill="none" stroke="#5f6980" style="stroke: var(--color1, #5f6980)" stroke-linejoin="round" stroke-linecap="round" stroke-miterlimit="4" stroke-width="2" d="M5.333 9.333h21.333"></path>
            <path fill="none" stroke="#5f6980" style="stroke: var(--color1, #5f6980)" stroke-linejoin="round" stroke-linecap="round" stroke-miterlimit="4" stroke-width="2" d="M13.333 14.667v8"></path>
            <path fill="none" stroke="#5f6980" style="stroke: var(--color1, #5f6980)" stroke-linejoin="round" stroke-linecap="round" stroke-miterlimit="4" stroke-width="2" d="M18.667 14.667v8"></path>
            <path fill="none" stroke="#5f6980" style="stroke: var(--color1, #5f6980)" stroke-linejoin="round" stroke-linecap="round" stroke-miterlimit="4" stroke-width="2" d="M6.667 9.333l1.333 16c0 0.707 0.281 1.385 0.781 1.886s1.178 0.781 1.886 0.781h10.667c0.707 0 1.385-0.281 1.886-0.781s0.781-1.178 0.781-1.886l1.333-16"></path>
            <path fill="none" stroke="#5f6980" style="stroke: var(--color1, #5f6980)" stroke-linejoin="round" stroke-linecap="round" stroke-miterlimit="4" stroke-width="2" d="M12 9.333v-4c0-0.354 0.14-0.693 0.391-0.943s0.589-0.391 0.943-0.391h5.333c0.354 0 0.693 0.14 0.943 0.391s0.391 0.589 0.391 0.943v4"></path>
        </symbol>
    </defs>
</svg>
