<svg width="24" height="22" viewBox="0 0 24 22" fill="none" xmlns="http://www.w3.org/2000/svg">
<path d="M23.8081 0.467505C23.7315 0.401252 23.6381 0.357224 23.5383 0.340186C23.4384 0.323149 23.3358 0.33375 23.2415 0.370842L0.724614 9.1827C0.495073 9.2718 0.300714 9.4331 0.17083 9.64228C0.0409466 9.85147 -0.0174231 10.0972 0.00451871 10.3424C0.0264606 10.5877 0.127525 10.8192 0.292479 11.002C0.457434 11.1848 0.677339 11.309 0.91905 11.3559L7.11213 12.5715V19.4423C7.11209 19.7081 7.19151 19.9679 7.3402 20.1882C7.48888 20.4086 7.70003 20.5794 7.94654 20.6789C8.10517 20.7425 8.27449 20.7753 8.44541 20.7756C8.62431 20.7752 8.80131 20.7387 8.96585 20.6685C9.13039 20.5983 9.27911 20.4956 9.40315 20.3667L12.5141 17.1446L17.2917 21.3344C17.5339 21.548 17.8454 21.6665 18.1683 21.6677C18.3094 21.6672 18.4495 21.6451 18.5839 21.6022C18.8038 21.5326 19.0017 21.4064 19.1577 21.2364C19.3136 21.0664 19.4223 20.8585 19.4727 20.6333L23.9859 1.01193C24.0085 0.913592 24.0039 0.810958 23.9726 0.715042C23.9412 0.619127 23.8844 0.533552 23.8081 0.467505ZM0.890163 10.2627C0.883645 10.2089 0.895752 10.1546 0.924464 10.1087C0.953175 10.0628 0.996755 10.0281 1.04793 10.0104L20.4527 2.41631L7.45323 11.7326L1.09127 10.4838C1.03734 10.4759 0.987825 10.4495 0.951155 10.4092C0.914484 10.3689 0.892929 10.3171 0.890163 10.2627ZM8.76428 19.7489C8.70284 19.8122 8.62395 19.8558 8.53766 19.8741C8.45137 19.8924 8.36158 19.8847 8.27972 19.8518C8.19787 19.8189 8.12765 19.7624 8.07801 19.6895C8.02837 19.6165 8.00156 19.5305 8.00098 19.4423V13.187L11.843 16.5535L8.76428 19.7489ZM18.6061 20.4311C18.5889 20.5066 18.5523 20.5762 18.5 20.6332C18.4476 20.6902 18.3812 20.7325 18.3075 20.7559C18.2338 20.7794 18.1552 20.7832 18.0795 20.7669C18.0039 20.7507 17.9338 20.715 17.8761 20.6633L8.27097 12.2404L22.9037 1.75412L18.6061 20.4311Z" fill="#5F6980" fill-opacity="0.8"/>
</svg>
